<mxfile host="app.diagrams.net" modified="2021-01-25T09:48:27.518Z" agent="5.0 (Windows NT 10.0; Win64; x64) AppleWebKit/537.36 (KHTML, like Gecko) Chrome/87.0.4280.141 Safari/537.36" etag="F0goFYI8I7ftRG4E4nAj" version="14.1.2" type="github">
  <diagram id="v7c_FS2XET6xNcAs-kbf" name="Page-1">
    <mxGraphModel dx="813" dy="436" grid="1" gridSize="10" guides="1" tooltips="1" connect="1" arrows="1" fold="1" page="1" pageScale="1" pageWidth="4681" pageHeight="3300" math="0" shadow="0">
      <root>
        <mxCell id="0" />
        <mxCell id="1" parent="0" />
        <mxCell id="Hwfoj4QnNgd2OLfH7DOn-2" style="edgeStyle=orthogonalEdgeStyle;rounded=0;orthogonalLoop=1;jettySize=auto;html=1;" edge="1" parent="1" source="Hwfoj4QnNgd2OLfH7DOn-1">
          <mxGeometry relative="1" as="geometry">
            <mxPoint x="360" y="180" as="targetPoint" />
          </mxGeometry>
        </mxCell>
        <mxCell id="Hwfoj4QnNgd2OLfH7DOn-1" value="Bekräfta köp" style="rounded=0;whiteSpace=wrap;html=1;fillColor=#a20025;strokeColor=#6F0000;fontColor=#ffffff;" vertex="1" parent="1">
          <mxGeometry x="130" y="150" width="120" height="60" as="geometry" />
        </mxCell>
        <mxCell id="Hwfoj4QnNgd2OLfH7DOn-5" style="edgeStyle=orthogonalEdgeStyle;rounded=0;orthogonalLoop=1;jettySize=auto;html=1;exitX=0.145;exitY=1;exitDx=0;exitDy=-4.35;exitPerimeter=0;entryX=0.321;entryY=0.008;entryDx=0;entryDy=0;entryPerimeter=0;" edge="1" parent="1" source="Hwfoj4QnNgd2OLfH7DOn-3" target="Hwfoj4QnNgd2OLfH7DOn-4">
          <mxGeometry relative="1" as="geometry" />
        </mxCell>
        <mxCell id="Hwfoj4QnNgd2OLfH7DOn-8" style="edgeStyle=orthogonalEdgeStyle;rounded=0;orthogonalLoop=1;jettySize=auto;html=1;exitX=0;exitY=1;exitDx=0;exitDy=-15;exitPerimeter=0;entryX=1;entryY=0.5;entryDx=0;entryDy=0;" edge="1" parent="1" source="Hwfoj4QnNgd2OLfH7DOn-3" target="Hwfoj4QnNgd2OLfH7DOn-7">
          <mxGeometry relative="1" as="geometry">
            <Array as="points">
              <mxPoint x="360" y="200" />
              <mxPoint x="305" y="200" />
              <mxPoint x="305" y="270" />
            </Array>
          </mxGeometry>
        </mxCell>
        <mxCell id="Hwfoj4QnNgd2OLfH7DOn-10" style="edgeStyle=orthogonalEdgeStyle;rounded=0;orthogonalLoop=1;jettySize=auto;html=1;exitX=0;exitY=1;exitDx=0;exitDy=-15;exitPerimeter=0;entryX=1;entryY=0.5;entryDx=0;entryDy=0;" edge="1" parent="1" source="Hwfoj4QnNgd2OLfH7DOn-3" target="Hwfoj4QnNgd2OLfH7DOn-9">
          <mxGeometry relative="1" as="geometry">
            <Array as="points">
              <mxPoint x="310" y="205" />
              <mxPoint x="310" y="360" />
            </Array>
          </mxGeometry>
        </mxCell>
        <mxCell id="Hwfoj4QnNgd2OLfH7DOn-15" style="edgeStyle=orthogonalEdgeStyle;rounded=0;orthogonalLoop=1;jettySize=auto;html=1;exitX=0.5;exitY=0;exitDx=0;exitDy=0;exitPerimeter=0;entryX=0.5;entryY=1;entryDx=0;entryDy=0;" edge="1" parent="1" source="Hwfoj4QnNgd2OLfH7DOn-3" target="Hwfoj4QnNgd2OLfH7DOn-14">
          <mxGeometry relative="1" as="geometry" />
        </mxCell>
        <mxCell id="Hwfoj4QnNgd2OLfH7DOn-22" style="edgeStyle=orthogonalEdgeStyle;rounded=0;orthogonalLoop=1;jettySize=auto;html=1;exitX=1;exitY=0;exitDx=0;exitDy=27.5;exitPerimeter=0;entryX=0;entryY=0.5;entryDx=0;entryDy=0;" edge="1" parent="1" source="Hwfoj4QnNgd2OLfH7DOn-3" target="Hwfoj4QnNgd2OLfH7DOn-21">
          <mxGeometry relative="1" as="geometry" />
        </mxCell>
        <mxCell id="Hwfoj4QnNgd2OLfH7DOn-26" style="edgeStyle=orthogonalEdgeStyle;rounded=0;orthogonalLoop=1;jettySize=auto;html=1;exitX=1;exitY=0.5;exitDx=0;exitDy=0;exitPerimeter=0;entryX=0.5;entryY=0;entryDx=0;entryDy=0;" edge="1" parent="1" source="Hwfoj4QnNgd2OLfH7DOn-3" target="Hwfoj4QnNgd2OLfH7DOn-25">
          <mxGeometry relative="1" as="geometry" />
        </mxCell>
        <mxCell id="Hwfoj4QnNgd2OLfH7DOn-3" value="backend" style="shape=cylinder3;whiteSpace=wrap;html=1;boundedLbl=1;backgroundOutline=1;size=15;" vertex="1" parent="1">
          <mxGeometry x="360" y="140" width="60" height="80" as="geometry" />
        </mxCell>
        <mxCell id="Hwfoj4QnNgd2OLfH7DOn-6" style="edgeStyle=orthogonalEdgeStyle;rounded=0;orthogonalLoop=1;jettySize=auto;html=1;exitX=0.75;exitY=0;exitDx=0;exitDy=0;" edge="1" parent="1" source="Hwfoj4QnNgd2OLfH7DOn-4">
          <mxGeometry relative="1" as="geometry">
            <mxPoint x="402" y="220" as="targetPoint" />
            <Array as="points">
              <mxPoint x="402" y="360" />
            </Array>
          </mxGeometry>
        </mxCell>
        <mxCell id="Hwfoj4QnNgd2OLfH7DOn-4" value="Ägare bekräftar" style="rounded=0;whiteSpace=wrap;html=1;" vertex="1" parent="1">
          <mxGeometry x="330" y="360" width="120" height="60" as="geometry" />
        </mxCell>
        <mxCell id="Hwfoj4QnNgd2OLfH7DOn-13" style="edgeStyle=orthogonalEdgeStyle;rounded=0;orthogonalLoop=1;jettySize=auto;html=1;exitX=1;exitY=0.25;exitDx=0;exitDy=0;entryX=0;entryY=0;entryDx=0;entryDy=52.5;entryPerimeter=0;" edge="1" parent="1" source="Hwfoj4QnNgd2OLfH7DOn-7" target="Hwfoj4QnNgd2OLfH7DOn-3">
          <mxGeometry relative="1" as="geometry" />
        </mxCell>
        <mxCell id="Hwfoj4QnNgd2OLfH7DOn-7" value="Betalning" style="rounded=0;whiteSpace=wrap;html=1;fillColor=#f0a30a;strokeColor=#BD7000;fontColor=#ffffff;" vertex="1" parent="1">
          <mxGeometry x="130" y="240" width="120" height="60" as="geometry" />
        </mxCell>
        <mxCell id="Hwfoj4QnNgd2OLfH7DOn-28" style="edgeStyle=orthogonalEdgeStyle;rounded=0;orthogonalLoop=1;jettySize=auto;html=1;exitX=0.5;exitY=1;exitDx=0;exitDy=0;entryX=0.5;entryY=0;entryDx=0;entryDy=0;" edge="1" parent="1" source="Hwfoj4QnNgd2OLfH7DOn-9" target="Hwfoj4QnNgd2OLfH7DOn-23">
          <mxGeometry relative="1" as="geometry" />
        </mxCell>
        <mxCell id="Hwfoj4QnNgd2OLfH7DOn-9" value="Visa tid" style="rounded=0;whiteSpace=wrap;html=1;fillColor=#a20025;strokeColor=#6F0000;fontColor=#ffffff;" vertex="1" parent="1">
          <mxGeometry x="130" y="330" width="120" height="60" as="geometry" />
        </mxCell>
        <mxCell id="Hwfoj4QnNgd2OLfH7DOn-12" style="edgeStyle=orthogonalEdgeStyle;rounded=0;orthogonalLoop=1;jettySize=auto;html=1;exitX=0.25;exitY=0;exitDx=0;exitDy=0;entryX=1;entryY=0;entryDx=0;entryDy=52.5;entryPerimeter=0;" edge="1" parent="1" source="Hwfoj4QnNgd2OLfH7DOn-11" target="Hwfoj4QnNgd2OLfH7DOn-3">
          <mxGeometry relative="1" as="geometry" />
        </mxCell>
        <mxCell id="Hwfoj4QnNgd2OLfH7DOn-11" value="Ändra tid" style="rounded=0;whiteSpace=wrap;html=1;" vertex="1" parent="1">
          <mxGeometry x="480" y="360" width="120" height="60" as="geometry" />
        </mxCell>
        <mxCell id="Hwfoj4QnNgd2OLfH7DOn-18" style="edgeStyle=orthogonalEdgeStyle;rounded=0;orthogonalLoop=1;jettySize=auto;html=1;exitX=0;exitY=0.5;exitDx=0;exitDy=0;entryX=0.33;entryY=-0.014;entryDx=0;entryDy=0;entryPerimeter=0;" edge="1" parent="1" source="Hwfoj4QnNgd2OLfH7DOn-14" target="Hwfoj4QnNgd2OLfH7DOn-19">
          <mxGeometry relative="1" as="geometry">
            <mxPoint x="40" y="140" as="targetPoint" />
          </mxGeometry>
        </mxCell>
        <mxCell id="Hwfoj4QnNgd2OLfH7DOn-14" value="Ägare nekar" style="rounded=0;whiteSpace=wrap;html=1;" vertex="1" parent="1">
          <mxGeometry x="330" y="40" width="120" height="60" as="geometry" />
        </mxCell>
        <mxCell id="Hwfoj4QnNgd2OLfH7DOn-20" style="edgeStyle=orthogonalEdgeStyle;rounded=0;orthogonalLoop=1;jettySize=auto;html=1;exitX=1;exitY=0.5;exitDx=0;exitDy=0;entryX=0;entryY=0.5;entryDx=0;entryDy=0;" edge="1" parent="1" source="Hwfoj4QnNgd2OLfH7DOn-19" target="Hwfoj4QnNgd2OLfH7DOn-1">
          <mxGeometry relative="1" as="geometry" />
        </mxCell>
        <mxCell id="Hwfoj4QnNgd2OLfH7DOn-19" value="Kundkorg" style="rounded=0;whiteSpace=wrap;html=1;fillColor=#f0a30a;strokeColor=#BD7000;fontColor=#ffffff;" vertex="1" parent="1">
          <mxGeometry y="150" width="120" height="60" as="geometry" />
        </mxCell>
        <mxCell id="Hwfoj4QnNgd2OLfH7DOn-21" value="Spara/uppdatera beställning i DB&amp;nbsp;" style="rounded=0;whiteSpace=wrap;html=1;" vertex="1" parent="1">
          <mxGeometry x="520" y="100" width="120" height="60" as="geometry" />
        </mxCell>
        <mxCell id="Hwfoj4QnNgd2OLfH7DOn-24" style="edgeStyle=orthogonalEdgeStyle;rounded=0;orthogonalLoop=1;jettySize=auto;html=1;exitX=1;exitY=0.5;exitDx=0;exitDy=0;entryX=0;entryY=1;entryDx=0;entryDy=-15;entryPerimeter=0;" edge="1" parent="1" source="Hwfoj4QnNgd2OLfH7DOn-23" target="Hwfoj4QnNgd2OLfH7DOn-3">
          <mxGeometry relative="1" as="geometry">
            <mxPoint x="320" y="220" as="targetPoint" />
            <Array as="points">
              <mxPoint x="320" y="450" />
              <mxPoint x="320" y="210" />
              <mxPoint x="360" y="210" />
            </Array>
          </mxGeometry>
        </mxCell>
        <mxCell id="Hwfoj4QnNgd2OLfH7DOn-23" value="Kund hämtar" style="rounded=0;whiteSpace=wrap;html=1;" vertex="1" parent="1">
          <mxGeometry x="130" y="420" width="120" height="60" as="geometry" />
        </mxCell>
        <mxCell id="Hwfoj4QnNgd2OLfH7DOn-25" value="Ta bort order från processed orders" style="rounded=0;whiteSpace=wrap;html=1;" vertex="1" parent="1">
          <mxGeometry x="630" y="360" width="120" height="60" as="geometry" />
        </mxCell>
      </root>
    </mxGraphModel>
  </diagram>
</mxfile>
